<?xml version="1.0" encoding="UTF-8"?><svg id="Layer_1" xmlns="http://www.w3.org/2000/svg" viewBox="0 0 2000 316.69"><defs><style>.cls-1{fill:#efefef;}</style></defs><path class="cls-1" d="M1125.97,0h-237.52s-39.59,39.59-39.59,39.59v237.52c15.45,15.47,24.12,24.13,39.59,39.59h237.52s39.59-39.59,39.59-39.59V39.59c-15.47-15.45-24.13-24.12-39.59-39.59Zm-189.11,259.81c-5.05,1.44-9.94,2.83-13.74,3.91l-26.21-199.31h39.13s20.06,189.9,20.06,189.9c-5.08,1.44-12.32,3.52-19.24,5.49Zm87.44-5.3c-4.37,1.25-34.03,9.22-34.03,9.22l-2.88-199.31h39.63s-2.72,190.09-2.72,190.09Zm68.26-.03c-4.07,1.16-30.44,7.89-35.21,9.25l21.05-199.31h39.13s-24.97,190.06-24.97,190.06Z"/><g><path class="cls-1" d="M0,64.37H35.52l57.75,132.85,24.13-53.14-34.7-79.71h33.62l18.71,44.19,19.25-44.19h20.06l-30.37,65.34,29.28,67.51,59.1-132.85h21.15l-85.94,195.21-40.4-93.54-43.11,93.54L0,64.37Z"/><path class="cls-1" d="M294.72,64.37h106.82v18.71h-72.93v62.9h59.38v17.62h-59.38v71.85h75.37v18.71h-109.26V64.37Z"/><path class="cls-1" d="M573.43,105.58l-36.06,4.61c0-18.71-7.59-32.54-25.49-32.54-16,0-25.76,11.39-25.76,25.76,0,13.55,8.95,24.94,28.47,34.7l21.15,10.57c24.67,12.47,42.02,26.84,42.02,52.87,0,30.91-27.92,55.85-65.88,55.85s-63.44-17.9-65.34-51.51l36.87-4.61c0,22.5,8.95,39.31,31.99,39.31,18.44,0,30.37-11.66,30.37-28.2,0-14.37-8.95-24.67-30.09-35.79l-21.96-11.39c-23.59-11.93-38.23-29.01-38.23-51.78,0-29.28,23.86-52.6,60.19-52.6,31.45,0,56.39,16.54,57.75,44.74Z"/><path class="cls-1" d="M611.12,64.37h145.86v19.52h-55.85V254.15h-33.89V83.89h-56.12v-19.52Z"/></g><g><path class="cls-1" d="M1280.43,64.4h62.9c56.39,0,100.04,27.92,100.04,92.99s-49.89,96.79-104.65,96.79h-58.29V64.4Zm33.89,17.35V236.83h25.76c38.23,0,66.15-24.13,66.15-77.27,0-47.45-25.21-77.81-69.13-77.81h-22.77Z"/><path class="cls-1" d="M1488.66,64.4h106.82v18.71h-72.93v62.9h59.37v17.62h-59.37v71.85h75.37v18.71h-109.26V64.4Z"/><path class="cls-1" d="M1801.54,254.18h-36.6l-22.23-51.51h-72.39l-23.05,51.51h-20.33l88.38-195.21,86.21,195.21Zm-123.63-68.05h57.48l-28.2-64.8-29.28,64.8Z"/><path class="cls-1" d="M1843.57,58.97l136.64,133.66V64.4h19.79v195.21l-136.37-133.39v127.97h-20.06V58.97Z"/></g></svg>